<?xml version="1.0" standalone="no"?>
<!DOCTYPE svg PUBLIC "-//W3C//DTD SVG 20010904//EN"
 "http://www.w3.org/TR/2001/REC-SVG-20010904/DTD/svg10.dtd">
<svg version="1.0" xmlns="http://www.w3.org/2000/svg"
 width="1011.000000pt" height="1011.000000pt" viewBox="0 0 1011.000000 1011.000000"
 preserveAspectRatio="xMidYMid meet">
<metadata>
Created by potrace 1.11, written by Peter Selinger 2001-2013
</metadata>
<g transform="translate(0.000000,1011.000000) scale(0.100000,-0.100000)"
fill="#000000" stroke="none">
<path d="M3432 10095 c-35 -26 -52 -70 -54 -138 -2 -157 50 -319 279 -872 143
-345 143 -345 136 -345 -3 0 -1 -6 5 -12 16 -20 53 -175 48 -204 -10 -55 -48
-68 -111 -38 -60 28 -153 144 -259 324 -31 52 -60 102 -65 110 -5 8 -62 110
-127 225 -118 212 -212 367 -226 373 -5 2 -8 8 -8 13 0 17 -90 127 -145 177
-56 51 -96 68 -150 64 -36 -3 -83 -46 -94 -87 -9 -31 -7 -142 3 -185 3 -14 8
-36 11 -50 18 -99 70 -253 200 -595 99 -261 128 -344 152 -430 21 -78 41 -195
38 -214 -2 -9 -4 -26 -4 -38 -1 -12 -11 -34 -24 -49 -66 -76 -153 33 -382 481
-167 326 -203 392 -278 510 -116 182 -192 271 -266 309 -64 34 -131 10 -161
-57 -16 -35 -19 -61 -16 -147 2 -58 6 -116 10 -130 3 -14 11 -50 17 -80 29
-147 135 -447 252 -720 178 -413 416 -864 625 -1180 104 -157 258 -324 381
-413 59 -43 91 -57 252 -117 94 -34 185 -100 227 -161 52 -78 61 -92 69 -109
4 -8 19 -37 35 -63 65 -112 466 -903 556 -1097 16 -36 80 -168 141 -294 61
-126 111 -230 111 -231 0 -1 45 -96 100 -210 55 -113 100 -208 100 -210 0 -2
20 -46 45 -97 l45 -93 -115 -260 c-64 -143 -124 -278 -134 -300 -42 -91 -397
-900 -511 -1165 -67 -157 -131 -303 -141 -325 -90 -202 -418 -1002 -484 -1181
-98 -272 -93 -387 22 -502 63 -63 142 -101 229 -110 165 -18 280 53 389 238
52 89 279 538 354 700 25 52 70 149 101 215 32 66 69 145 83 175 14 30 47 102
75 160 44 93 74 158 209 450 80 172 157 339 184 398 16 35 51 110 78 165 26
56 67 145 91 197 24 52 47 99 51 104 4 4 19 -16 32 -45 14 -30 48 -103 77
-164 29 -60 67 -141 85 -180 18 -38 62 -132 99 -209 36 -76 66 -140 66 -141 0
-1 43 -91 95 -199 52 -109 95 -199 95 -200 0 -2 43 -93 96 -202 53 -110 112
-233 131 -274 20 -41 125 -255 234 -475 347 -701 399 -783 536 -847 142 -67
327 -30 445 88 112 111 145 274 90 439 -34 102 -155 395 -229 555 -14 30 -42
93 -63 140 -21 47 -52 117 -70 155 -18 39 -42 93 -55 120 -32 72 -62 138 -205
445 -272 587 -381 822 -465 1005 -82 179 -223 486 -284 620 -16 33 -55 119
-87 190 -32 72 -71 155 -85 185 l-26 54 50 96 c135 257 247 432 303 475 51 39
177 99 274 130 106 35 159 61 235 117 90 67 219 192 258 251 366 553 981 2715
1136 3992 6 50 14 108 16 130 14 103 17 418 5 492 -30 189 -119 317 -226 327
-48 5 -80 -11 -126 -62 -33 -37 -124 -170 -162 -237 -9 -17 -25 -43 -35 -60
-174 -287 -622 -1165 -1051 -2060 -26 -55 -76 -158 -110 -230 -35 -71 -83
-173 -107 -225 -25 -52 -64 -135 -88 -185 -23 -49 -93 -198 -155 -330 -61
-132 -129 -276 -150 -320 -21 -44 -131 -282 -245 -530 -114 -247 -217 -472
-230 -500 -13 -27 -36 -78 -51 -112 -16 -35 -31 -60 -35 -55 -14 14 -361 806
-471 1072 -32 80 -65 159 -73 175 -7 17 -20 48 -28 70 -8 22 -32 85 -52 140
-51 137 -72 214 -69 250 8 102 14 150 29 230 27 154 30 186 29 350 -2 280 -26
426 -119 714 -108 332 -378 944 -562 1270 -29 51 -53 95 -53 97 0 21 -213 344
-265 400 -5 7 -31 36 -57 66 -95 111 -217 165 -276 123z"/>
</g>
</svg>
